<svg xmlns="http://www.w3.org/2000/svg" width="8" height="22.545" viewBox="0 0 8 22.545">
  <g id="Ligament" transform="translate(-21 -1)">
    <path id="Path_26" data-name="Path 26" d="M36,39.182v.727c.612,0,1.091-.639,1.091-1.455S36.612,37,36,37v.727c.148,0,.364.283.364.727S36.148,39.182,36,39.182Z" transform="translate(-9.545 -22.909)" fill="#2d60d8"/>
    <path id="Path_27" data-name="Path 27" d="M26.091,19.727V19C25.479,19,25,19.639,25,20.455s.479,1.455,1.091,1.455v-.727c-.148,0-.364-.283-.364-.727S25.943,19.727,26.091,19.727Z" transform="translate(-2.545 -11.455)" fill="#2d60d8"/>
    <path id="Path_28" data-name="Path 28" d="M28.636,12.313v-.081a3.286,3.286,0,0,0-.279-1.307A3.137,3.137,0,0,0,29,9a3.068,3.068,0,0,0-1.056-2.36,3.264,3.264,0,0,1-1.126-2.549V1h-.727V4.091A3.988,3.988,0,0,0,27.481,7.2,2.334,2.334,0,0,1,28.273,9a2.027,2.027,0,0,1-1.818,2.182,1.652,1.652,0,0,1-1.192-.54.375.375,0,0,0-.526,0,1.652,1.652,0,0,1-1.192.54A2.027,2.027,0,0,1,21.727,9a2.334,2.334,0,0,1,.791-1.8,3.988,3.988,0,0,0,1.391-3.11V1h-.727V4.091A3.264,3.264,0,0,1,22.056,6.64,3.068,3.068,0,0,0,21,9a3.14,3.14,0,0,0,.642,1.925,3.286,3.286,0,0,0-.279,1.307v.081a3.286,3.286,0,0,0,.279,1.307A3.137,3.137,0,0,0,21,15.545a3.068,3.068,0,0,0,1.056,2.36,3.264,3.264,0,0,1,1.126,2.549v3.091h.727V20.455a3.988,3.988,0,0,0-1.391-3.11,2.334,2.334,0,0,1-.791-1.8,2.027,2.027,0,0,1,1.818-2.182,1.652,1.652,0,0,1,1.192.54.375.375,0,0,0,.526,0,1.652,1.652,0,0,1,1.192-.54,2.027,2.027,0,0,1,1.818,2.182,2.334,2.334,0,0,1-.791,1.8,3.988,3.988,0,0,0-1.391,3.11v3.091h.727V20.455a3.264,3.264,0,0,1,1.126-2.549A3.068,3.068,0,0,0,29,15.545a3.14,3.14,0,0,0-.642-1.925A3.286,3.286,0,0,0,28.636,12.313ZM25,13.16a2.323,2.323,0,0,0-1.455-.523,2.3,2.3,0,0,0-1.334.436,2.555,2.555,0,0,1-.12-.76v-.081a2.553,2.553,0,0,1,.12-.759,2.3,2.3,0,0,0,1.334.436A2.323,2.323,0,0,0,25,11.386a2.323,2.323,0,0,0,1.455.523,2.3,2.3,0,0,0,1.334-.436,2.555,2.555,0,0,1,.12.76v.081a2.553,2.553,0,0,1-.12.759,2.3,2.3,0,0,0-1.334-.436A2.323,2.323,0,0,0,25,13.16Z" transform="translate(0 0)" fill="#2d60d8"/>
  </g>
</svg>
