<svg xmlns="http://www.w3.org/2000/svg" width="16.961" height="16.961" viewBox="0 0 16.961 16.961">
  <path id="Call" d="M15.6,11.133a9.63,9.63,0,0,1-3.024-.482,1.382,1.382,0,0,0-1.344.283l-1.907,1.44A10.539,10.539,0,0,1,4.586,7.637l1.4-1.857A1.371,1.371,0,0,0,6.32,4.39a9.645,9.645,0,0,1-.484-3.029A1.362,1.362,0,0,0,4.476,0H1.361A1.363,1.363,0,0,0,0,1.361a15.618,15.618,0,0,0,15.6,15.6A1.363,1.363,0,0,0,16.961,15.6V12.494A1.363,1.363,0,0,0,15.6,11.133Z" transform="translate(0 0)" fill="#00b187"/>
</svg>
