<svg xmlns="http://www.w3.org/2000/svg"
width="20.319"
height="18.693"
  viewBox="0 0 20.319 18.693">
  <g id="Comment" transform="translate(-260 -331)">
  <g id="comment-2" data-name="comment" transform="translate(260 331)">
  <path id="Path_12" data-name="Path 12" d="M17.526-1.332H2.794A2.8,2.8,0,0,0,0,1.461v9.015A2.8,2.8,0,0,0,2.784,13.27v4.091L8.664,13.27h8.862a2.8,2.8,0,0,0,2.793-2.793V1.461a2.8,2.8,0,0,0-2.793-2.793Zm1.6,11.809a1.6,1.6,0,0,1-1.6,1.6H8.29l-4.315,3v-3H2.794a1.6,1.6,0,0,1-1.6-1.6V1.461a1.6,1.6,0,0,1,1.6-1.6H17.526a1.6,1.6,0,0,1,1.6,1.6Zm0,0" transform="translate(-0.001 1.332)" fill="#ffb300"/>
  </g>
  <path id="Path_353" data-name="Path 353" d="M3928.437-163.105h9.429" transform="translate(-3663 499)" fill="none" stroke="#ffb300" stroke-linecap="round" stroke-width="1"/>
  <path id="Path_354" data-name="Path 354" d="M3928.437-163.105h9.429" transform="translate(-3663 501)" fill="none" stroke="#ffb300" stroke-linecap="round" stroke-width="1"/>
  <path id="Path_355" data-name="Path 355" d="M3928.437-163.105h9.429" transform="translate(-3663 503)" fill="none" stroke="#ffb300" stroke-linecap="round" stroke-width="1"/>
  </g>
</svg>
