<svg xmlns="http://www.w3.org/2000/svg" width="21.114" height="21.381" viewBox="0 0 21.114 21.381">
  <g id="heart_1_" data-name="heart (1)" transform="translate(-3.193)">
    <path id="Path_32" data-name="Path 32" d="M275.069,127.292l.007,2.041-3.043-.225a8.727,8.727,0,0,0-3.951.419,8.545,8.545,0,0,0-2.255,1.172h0a8.853,8.853,0,0,0-.932-1.872l.028-.018a11.09,11.09,0,0,1,1.186-.69,10.884,10.884,0,0,1,6.185-1.063Z" transform="translate(-250.769 -121.67)" fill="#fc969f"/>
    <path id="Path_33" data-name="Path 33" d="M99.172,84.266h0a8.547,8.547,0,0,1,2.255-1.172c.4.7.806,1.4,1.143,1.984a2.72,2.72,0,0,1-.084,2.85,2.714,2.714,0,0,0-.45,1.492v1.224a6.129,6.129,0,0,1-2.125,4.641,2.709,2.709,0,0,1-3.737-.183l-2.73-2.871a6.307,6.307,0,0,1-1.721-3.863,4.405,4.405,0,0,1,.479-5.51l.218-.225c.035-.039.07-.081.109-.12l1.309-1.305.014-.025c.13.063.264.13.4.208a5.119,5.119,0,0,1,.454-1.027,3.814,3.814,0,0,1,.566-.753,3.56,3.56,0,0,1,.922-.686,3.631,3.631,0,0,1,2.034-.391,1.836,1.836,0,0,1,.2.021c.049.007.1.014.144.025a3.685,3.685,0,0,1,1.872.925,3.629,3.629,0,0,1,.939,1.436v0a10.6,10.6,0,0,0-1.928.742,1.641,1.641,0,0,0-2.484-.813,8.491,8.491,0,0,1,1.27,1.52A8.85,8.85,0,0,1,99.172,84.266Z" transform="translate(-84.119 -75.237)" fill="#cc2a59"/>
    <path id="Path_34" data-name="Path 34" d="M276.067,0l-1.386,4.268a3.685,3.685,0,0,0-1.872-.925v0L273.97,0Z" transform="translate(-258.357)" fill="#fc969f"/>
    <path id="Path_35" data-name="Path 35" d="M235.64,127.963a1.589,1.589,0,0,1,1.316,1.087,11.086,11.086,0,0,0-1.186.69l-.028.018a8.487,8.487,0,0,0-1.27-1.52A1.593,1.593,0,0,1,235.64,127.963Z" transform="translate(-221.621 -122.601)" fill="#cc2a59"/>
    <g id="Group_8" data-name="Group 8" transform="translate(3.193 0.088)">
      <path id="Path_36" data-name="Path 36" d="M210.683,2.105,210.95,5.3l0,.018a3.631,3.631,0,0,0-2.034.391l-.306-3.6h2.076Z" transform="translate(-200.029 -2.105)" fill="#fc969f"/>
      <path id="Path_37" data-name="Path 37" d="M11.155,77.2a3.814,3.814,0,0,0-.566.753,5.12,5.12,0,0,0-.454,1.027c-.134-.077-.267-.144-.4-.208A7.15,7.15,0,0,0,7.3,78.062l-4.1.06V76.06L7.44,76A8.952,8.952,0,0,1,11.155,77.2Z" transform="translate(-3.193 -72.911)" fill="#fc969f"/>
      <path id="Path_38" data-name="Path 38" d="M207.949,182.352a7.231,7.231,0,0,0-1.533-3.771l.541-.449a7.923,7.923,0,0,1,1.689,4.131Z" transform="translate(-197.93 -170.781)" fill="#fc969f"/>
      <path id="Path_39" data-name="Path 39" d="M231.339,134.689a10.039,10.039,0,0,0-.54-2.243,8.509,8.509,0,0,0-.9-1.8,8.188,8.188,0,0,0-1.218-1.458l.228-.269.246-.249a8.917,8.917,0,0,1,1.333,1.591,9.223,9.223,0,0,1,.969,1.946,10.739,10.739,0,0,1,.577,2.4Z" transform="translate(-219.268 -123.382)" fill="#fc969f"/>
      <path id="Path_40" data-name="Path 40" d="M204.456,125.494l-.063-3.075c0-.07,0-.131,0-.194a3.492,3.492,0,0,1,.477-1.659,1.972,1.972,0,0,1,.574-.635,1.993,1.993,0,0,1,3.018.989l-.645.3a1.36,1.36,0,0,0-1.055-.931,1.244,1.244,0,0,0-.912.211,1.269,1.269,0,0,0-.373.415,2.8,2.8,0,0,0-.382,1.337c0,.061,0,.106,0,.156l.063,3.068Z" transform="translate(-195.991 -114.671)" fill="#fc969f"/>
      <path id="Path_41" data-name="Path 41" d="M191.079,274.828a2.445,2.445,0,0,0-1.178-.221,1.945,1.945,0,0,0-.39-.291,2.384,2.384,0,0,1-.862-1.29l.055-.152a4.677,4.677,0,0,0,.389-2.416l-.695.11a4.006,4.006,0,0,1-.356,2.066l-.1.271-.026.081-.01,0,0,.016a5.27,5.27,0,0,0-.213.841,3.078,3.078,0,0,0-1.144,1.109c-.047.081-.083.169-.123.252-.109,0-.26,0-.461,0a1.83,1.83,0,0,0-1.032.294l.4.579a1.074,1.074,0,0,1,.616-.17l.211,0c-.02.073-.041.148-.058.215a1.789,1.789,0,0,1-.275.693l.548.442a2.358,2.358,0,0,0,.409-.959,4.981,4.981,0,0,1,.189-.614,3.186,3.186,0,0,1,.188-.385,2.149,2.149,0,0,1,.493-.576,8.978,8.978,0,0,0,.277,1.618c.063.265.118.493.141.67a3.447,3.447,0,0,1-.039,1.065l.685.161a4.086,4.086,0,0,0,.053-1.313,7.207,7.207,0,0,0-.155-.748,6.345,6.345,0,0,1-.249-2.073v0a2.251,2.251,0,0,0,.8.827,1.268,1.268,0,0,1,.338.27,1.5,1.5,0,0,1,.362,1.132l.7.1a2.171,2.171,0,0,0-.154-1.091.92.92,0,0,1,.305.091Z" transform="translate(-177.349 -259.252)" fill="#fc969f"/>
      <path id="Path_42" data-name="Path 42" d="M51.976,196.241l-.077-.264a6.967,6.967,0,0,1,.267-4.719l.647.275a6.261,6.261,0,0,0-.24,4.244l.078.266Z" transform="translate(-49.587 -183.36)" fill="#fc969f"/>
      <path id="Path_43" data-name="Path 43" d="M322.709,363.542l-.451-.54a7.641,7.641,0,0,0,2.752-5.883v-.046h.7v.046A8.342,8.342,0,0,1,322.709,363.542Z" transform="translate(-308.934 -342.249)" fill="#fc969f"/>
      <path id="Path_44" data-name="Path 44" d="M397.764,226.075l-.565-.42a1.58,1.58,0,0,0-.083-1.978l-.072-.083.531-.462.07.081A2.287,2.287,0,0,1,397.764,226.075Z" transform="translate(-380.596 -213.902)" fill="#fc969f"/>
      <path id="Path_45" data-name="Path 45" d="M87.23,396.061l-2.2-2.016a7.221,7.221,0,0,1-1.6-2.134l.631-.311a6.519,6.519,0,0,0,1.446,1.926l2.2,2.016Z" transform="translate(-80.079 -375.335)" fill="#fc969f"/>
      <path id="Path_46" data-name="Path 46" d="M376.763,410.935l-.447-.544a4.546,4.546,0,0,0,1.639-3.163l.02-.277.7.053-.021.278A5.25,5.25,0,0,1,376.763,410.935Z" transform="translate(-360.735 -390.045)" fill="#fc969f"/>
      <path id="Path_47" data-name="Path 47" d="M60.406,423.462l-.373-.341a5.043,5.043,0,0,1-1.046-1.333l.618-.337a4.343,4.343,0,0,0,.9,1.149l.375.343Z" transform="translate(-56.657 -403.94)" fill="#fc969f"/>
      <path id="Path_48" data-name="Path 48" d="M437.505,235.96l-.692-.124.049-.274a2.565,2.565,0,0,0-.068-1.205l.673-.2a3.265,3.265,0,0,1,.087,1.534Z" transform="translate(-418.687 -224.463)" fill="#fc969f"/>
    </g>
  </g>
</svg>
