<svg xmlns="http://www.w3.org/2000/svg" width="35.848" height="6.229" viewBox="0 0 35.848 6.229">
  <g id="Rating" transform="translate(-207.5 -133.618)">
    <path id="Path_10" data-name="Path 10" d="M6.47,11.927l-2.35-.152L3.233,9.55l-.887,2.225L0,11.927l1.8,1.532-.591,2.32L3.233,14.5l2.024,1.281-.591-2.32Z" transform="translate(207.5 124.068)" fill="#ffd400"/>
    <path id="Path_10-2" data-name="Path 10" d="M6.47,11.927l-2.35-.152L3.233,9.55l-.887,2.225L0,11.927l1.8,1.532-.591,2.32L3.233,14.5l2.024,1.281-.591-2.32Z" transform="translate(214.844 124.068)" fill="#ffd400"/>
    <path id="Path_10-3" data-name="Path 10" d="M6.47,11.927l-2.35-.152L3.233,9.55l-.887,2.225L0,11.927l1.8,1.532-.591,2.32L3.233,14.5l2.024,1.281-.591-2.32Z" transform="translate(222.189 124.068)" fill="#ffd400"/>
    <path id="Path_10-4" data-name="Path 10" d="M6.47,11.927l-2.35-.152L3.233,9.55l-.887,2.225L0,11.927l1.8,1.532-.591,2.32L3.233,14.5l2.024,1.281-.591-2.32Z" transform="translate(229.534 124.068)" fill="#ffd400"/>
    <path id="Path_10-5" data-name="Path 10" d="M6.47,11.927l-2.35-.152L3.233,9.55l-.887,2.225L0,11.927l1.8,1.532-.591,2.32L3.233,14.5l2.024,1.281-.591-2.32Z" transform="translate(236.878 124.068)" fill="#ffd400"/>
  </g>
</svg>
