<svg xmlns="http://www.w3.org/2000/svg" width="28.131" height="25.384" viewBox="0 0 28.131 25.384">
  <path id="switch-camera" d="M19.285,13.9h-2.8a1.1,1.1,0,0,1,0-2.2h1.283a4.675,4.675,0,0,0-8.109.194,1.1,1.1,0,0,1-1.932-1.048,6.859,6.859,0,0,1,11.56-.81V8.956a1.1,1.1,0,1,1,2.2,0V11.7a2.2,2.2,0,0,1-2.2,2.2Zm7.747,2.692a1.1,1.1,0,0,0,1.1-1.1V8.351a4.4,4.4,0,0,0-4.4-4.4H22.067a1.1,1.1,0,0,1-1.04-.745l-.332-.977A3.3,3.3,0,0,0,17.573,0h-7.02a3.305,3.305,0,0,0-3.1,2.177L7.072,3.23a1.1,1.1,0,0,1-1.034.726H4.395A4.4,4.4,0,0,0,0,8.351V20.988a4.4,4.4,0,0,0,4.4,4.4h19.34a4.4,4.4,0,0,0,4.4-4.4,1.1,1.1,0,0,0-2.2,0,2.2,2.2,0,0,1-2.2,2.2H4.395a2.2,2.2,0,0,1-2.2-2.2V8.351a2.2,2.2,0,0,1,2.2-2.2H6.038a3.305,3.305,0,0,0,3.1-2.177L9.52,2.923A1.1,1.1,0,0,1,10.553,2.2h7.02a1.1,1.1,0,0,1,1.04.745l.332.977a3.3,3.3,0,0,0,3.121,2.234h1.668a2.2,2.2,0,0,1,2.2,2.2v7.143a1.1,1.1,0,0,0,1.1,1.1Zm-14.45-.934a1.1,1.1,0,0,0-1.1-1.1H8.68a2.2,2.2,0,0,0-2.2,2.2V19.5a1.1,1.1,0,1,0,2.2,0v-1.1a6.9,6.9,0,0,0,1.4,1.423,6.87,6.87,0,0,0,10.166-2.22,1.1,1.1,0,1,0-1.932-1.048,4.676,4.676,0,0,1-8.109.194h1.273a1.1,1.1,0,0,0,1.1-1.1Zm0,0" transform="translate(0.001 0)"/>
</svg>
