<svg xmlns="http://www.w3.org/2000/svg" width="19.619" height="21.02" viewBox="0 0 19.619 21.02">
  <g id="Dentist" transform="translate(-4 -2)">
    <path id="Path_29" data-name="Path 29" d="M5.44,13.02c1,1.962,1.759,3.74,2.369,5.17,1.285,3.013,2.06,4.831,3.549,4.831,1.579,0,1.752-1.234,1.752-3.854,0-3.24.317-3.5.7-3.5s.7.263.7,3.5c0,2.619.173,3.854,1.752,3.854,1.489,0,2.264-1.818,3.549-4.831.61-1.43,1.368-3.209,2.369-5.17l.117-.23a9.116,9.116,0,0,0,1.322-4.134C23.619,4.924,21.157,2,18.013,2a5.8,5.8,0,0,0-3.366,1.123,1.545,1.545,0,0,1-1.677,0A5.8,5.8,0,0,0,9.605,2C6.462,2,4,4.924,4,8.656A9.139,9.139,0,0,0,5.322,12.79ZM9.605,2.7a5.071,5.071,0,0,1,2.94.979h0a6.067,6.067,0,0,0,3.492,1,8.1,8.1,0,0,0,2.571-.435l-.222-.666a6.893,6.893,0,0,1-3.6.274,1.7,1.7,0,0,0,.287-.175A5.071,5.071,0,0,1,18.013,2.7c2.75,0,4.9,2.616,4.9,5.956a8.6,8.6,0,0,1-1.245,3.814l-.118.231c-1.011,1.983-1.775,3.774-2.389,5.213-1.131,2.653-1.878,4.405-2.9,4.405-.763,0-1.051-.272-1.051-3.153,0-2.965-.195-4.2-1.4-4.2s-1.4,1.239-1.4,4.2c0,2.881-.288,3.153-1.051,3.153-1.026,0-1.773-1.752-2.9-4.405-.614-1.439-1.378-3.23-2.389-5.213l-.118-.231A8.6,8.6,0,0,1,4.7,8.656C4.7,5.317,6.855,2.7,9.605,2.7Z" fill="#317584"/>
    <path id="Path_30" data-name="Path 30" d="M12.554,6.7V6C11.109,6,8.3,7.093,8,11.23l.7.05C9.022,6.775,12.411,6.7,12.554,6.7Z" transform="translate(-2.599 -2.599)" fill="#317584"/>
    <rect id="Rectangle_23" data-name="Rectangle 23" height="1" transform="translate(5.619 9.02)" fill="#317584"/>
    <path id="Path_31" data-name="Path 31" d="M51.573,21h-.7a7.886,7.886,0,0,1-1.687,4l.57.407A8.364,8.364,0,0,0,51.573,21Z" transform="translate(-29.356 -12.344)" fill="#317584"/>
  </g>
</svg>
